<?xml version="1.0" encoding="UTF-8"?>
<svg id="Capa_2" data-name="Capa 2" xmlns="http://www.w3.org/2000/svg" viewBox="0 0 180.67 158.07">
  <defs>
    <style>
      .cls-1 {
        fill: #f08159;
      }

      .cls-2 {
        fill: #d5e4e6;
      }
    </style>
  </defs>
  <g id="Capa_1-2" data-name="Capa 1">
    <g>
      <path class="cls-1" d="M180.44,46.74c-.62-7.02-2.57-13.67-5.82-19.91-3.72-7.15-8.82-13.18-15.45-17.89C150.11,2.5,140.04-.53,128.94.13c-9.55.57-18.13,3.94-25.73,9.72-5.22,3.97-9.44,8.84-12.86,14.59-.33-.51-.59-.89-.84-1.28-6.67-10.6-15.96-17.81-28.03-21.34-7.15-2.1-14.42-2.38-21.73-.87-10.46,2.17-19.25,7.29-26.33,15.21C6.1,24.37,1.87,34.03.46,44.91c-.82,6.3-.56,12.57.86,18.77,1.02,4.46,2.45,8.76,4.79,12.73,2.96,5.02,6.57,9.56,10.34,13.98,6.18,7.24,12.82,14.05,19.75,20.56,6.44,6.04,12.88,12.09,19.5,17.93.09-.51.19-1,.31-1.44.89-3.31,1.94-6.01,3.01-8.2-.46-.25-.91-.5-1.33-.76-6.13-3.83-8.33-7.49-9.51-9.46l-.07-.11c-1.56-2.6-2.07-3.61-3.19-6.35-.7-1.72-1.32-4.23-1.54-5.47-.25-1.42-.35-4.4-.11-6.1,1.08-7.63,4.58-17.15,6.46-22.26.33-.9.61-1.64.79-2.17,1.3-3.77,2.63-7.46,4.54-11.09l.05-.09c1.27-2.42,2.71-5.16,4.94-7.82,1-1.18,2.77-2.78,5.27-4.74,2.14-1.67,2.61-2.03,4.86-3.54,2.32-1.56,4.88-2.44,7.83-2.71,4.03-.36,9.94-.49,14.13-.49,3.94,0,6.73.1,8.31.3,1.49.19,3.1.41,4.75.77,2.79.6,4.67,2.01,5.69,2.77l.16.12c10.14,7.52,17.22,19.19,18.32,21.82.38.91.71,1.83.99,2.74.81,2.64,2.14,9.11,2.54,12.01.46,3.31,1.35,11.57,1.47,13.02.21,2.48.2,7.37-2.18,12.14l-.14.3c-.7,1.5-2.2,4.72-5.5,7.95,2.79,3.55,5.16,7.82,6.72,11.56,7.44-6.75,14.68-13.72,21.61-21.01,4.67-4.91,9.11-10.04,13.46-15.23,3.36-4.01,6.36-8.33,8.36-13.21,3.34-8.14,4.5-16.63,3.72-25.39Z"/>
      <path class="cls-2" d="M125.95,128.19c0-1.83-5.45-13.92-10.68-17.01-1.02-.6-3.53-1.68-5.47-2,2.22-1.09,4.27-2.45,6.44-3.68,5.39-3.06,6.83-7.08,7.58-8.57,1.33-2.67,1.38-5.58,1.24-7.25-.11-1.28-.98-9.32-1.42-12.53-.36-2.61-1.61-8.59-2.22-10.57-.2-.64-.44-1.29-.69-1.89-.68-1.64-6.99-11.8-15.29-17.96-.68-.51-1.4-1.09-2.29-1.28-1.31-.28-2.63-.46-3.96-.63-2.87-.36-14.65-.3-20.45.23-1.23.11-2.33.39-3.51,1.18-2.04,1.37-2.31,1.58-4.32,3.15-.87.68-3.14,2.5-3.89,3.4-1.61,1.91-2.74,4.09-3.88,6.25-1.64,3.13-2.83,6.48-3.99,9.82-1.17,3.38-5.7,14.69-6.83,22.7-.1.7-.03,2.69.06,3.23.16.9.63,2.68.98,3.55.96,2.33,1.26,2.92,2.56,5.09.89,1.48,2.19,3.78,6.55,6.5,3.22,2.01,9.56,3.62,15.18,3.45-.64.34-4.2,2.13-4.44,2.28-.55.35-1.13.67-1.62,1.09-.92.78-4.32,3.33-6.77,12.39-.48,1.78-.69,6.58-.77,7.15.53.45.86.73,1.4,1.18-.12-3.63.2-6.31.46-7.5,2.24-10.23,8.06-12.8,7.81-12.19-1.28,3.12-1.89,7.74-1.91,8.33-.04,1.21-.03,2.42-.02,3.63.01,3.41.95,6.62,2.16,9.76.54,1.4,1.25,2.71,1.88,4.06.15.33.34.64.39,1.17-.97-.24-1.93-.45-2.9-.63,4.09,3.42,8.18,6.82,12.26,10.25,1.53,1.29,3.13,2.5,4.7,3.74.17-.13.28-.2.38-.28,6.54-5.44,13.12-10.83,19.66-16.28.32-1.06.64-2.13.92-3.29.35.66.56,1.29.72,1.92,2.33-1.95,4.65-3.9,6.96-5.87,2.36-2.01,4.69-4.03,7.02-6.07ZM91.08,116.65c-1.05,2.46-1.97,4.98-2.56,7.59-.32,1.42-.86,4.89-.86,6.35s.07,5.98.05,6.38c-.03.49-.28.53-.7.61-2.91.54-7.67,1.76-10.53,4.64-.28-.47-1.5-2.68-2.16-4.97-.74-2.57-1.09-4.54-1.23-6.14-.21-2.44-.21-5.88.37-8.76.18-.88.89-3.09,1.52-4.58.13-.3.33-.44.66-.46,3.55-.23,7.08-.59,10.63-.75,1.49-.07,2.98-.26,4.47-.43.55-.06.55.05.35.52ZM99.82,107.44c-.1-.2-1.35-3.3-1.63-4.75-.06-.34.02-.53.41-.6,1.28-.23,2.55-.5,3.79-.92,3.66-1.21,10.07-5.01,11.13-6.56.23.35.25,2.35.24,2.7,0,3.67-.67,4.29-2.77,6-2.12,1.73-5.2,3.37-10.19,4.76-.65.18-.69-.01-.99-.62ZM105.43,109.14c-1.13-.04-2.36.04-3.66,0,2.86-.72,7.64-3.11,9.21-4.27,1.27-.95,1.93-1.56,2.92-2.76,1.43-1.73,1.1-4.32,1.11-6.21.02-2-1.46-7.42-2.25-9.87-.34-1.05-.9-3.64-1.63-5.38-.17-.4-3.71-10.33-6.19-14.7-.45-.8-1.01-1.52-1.64-2.18-1.69-1.76-3.16-2.54-4.19-3.18-1.92-1.19-6.91-3.35-10.16-3.92-.23-.04-.45-.24-.39-.46,1.09-4.24,4.68-8.88,6.78-9.81.54-.24,1.08-.63,1.8-.55,1.55.18,3.11.3,4.65.6,5.48,1.07,16.36,16.93,16.72,17.49.96,1.5,1.53,2.99,1.9,4.77.51,2.52,1.84,9.39,2.19,11.94.42,3.09,1.04,8.79,1.04,11.34s-.89,4.27-1.3,5.04c-1.76,3.34-2.18,4.14-6.19,6.87-2,1.37-4.16,2.37-6.23,3.62-.99.6-3.06,1.66-4.46,1.62Z"/>
    </g>
  </g>
</svg>